<svg width="512" height="512" viewBox="0 0 512 512" fill="none" xmlns="http://www.w3.org/2000/svg">
<path d="M40 72C40 54.3269 54.3269 40 72 40H256V256H40V72Z" fill="#E3D7FF"/>
<path d="M40 256H256V472H72C54.3269 472 40 457.673 40 440V256Z" fill="#AFA2FF"/>
<path d="M256 40H440C457.673 40 472 54.3269 472 72V440C472 457.673 457.673 472 440 472H256V40Z" fill="#7A89C2"/>
<path d="M408.318 139.751V155.382H319V139.751H408.318ZM363.659 196.134C360.17 196.134 357.193 194.924 354.727 192.505C352.308 190.039 351.099 187.062 351.099 183.573C351.099 180.224 352.308 177.339 354.727 174.92C357.193 172.501 360.17 171.292 363.659 171.292C367.009 171.292 369.893 172.501 372.312 174.92C374.731 177.339 375.94 180.224 375.94 183.573C375.94 187.062 374.731 190.039 372.312 192.505C369.893 194.924 367.009 196.134 363.659 196.134ZM363.659 123.842C361.333 123.842 359.216 123.283 357.309 122.167C355.402 121.05 353.89 119.539 352.773 117.631C351.657 115.724 351.099 113.607 351.099 111.281C351.099 107.932 352.308 105.048 354.727 102.629C357.193 100.21 360.17 99 363.659 99C367.009 99 369.893 100.21 372.312 102.629C374.731 105.048 375.94 107.932 375.94 111.281C375.94 114.77 374.731 117.748 372.312 120.213C369.893 122.632 367.009 123.842 363.659 123.842Z" fill="#0D0D0D"/>
<circle cx="353.5" cy="353.5" r="158.5" fill="#77CBB9"/>
<path d="M140.239 194.109V102H155.87V194.109H140.239ZM102 155.87V140.239H194.109V155.87H102Z" fill="#0D0D0D"/>
<path d="M287 332.525V309H421V332.525H287ZM287 397V373.475H421V397H287Z" fill="white"/>
<path d="M179.523 356V371.352H117V356H179.523Z" fill="#0D0D0D"/>
</svg>
